<?xml version="1.0" encoding="UTF-8"?>
<svg id="Layer_2" data-name="Layer 2" xmlns="http://www.w3.org/2000/svg" viewBox="0 0 651.43 554.06">
  <defs>
    <style>
      .cls-1 {
        fill: #f2e7d1;
      }
    </style>
  </defs>
  <g id="Capa_1" data-name="Capa 1">
    <g>
      <g>
        <path class="cls-1" d="M453.97,287.55c-13.99-3.11-32.65-3.69-49.76.62-38.02,9.59-49.35,37.98-49.35,37.98.52,4.68,3.91,2.82,11.02,1.27,7.12-1.55,27.51,7.72,27.51,7.72,0,0,29.69,8.05,52.25-12.97,22.55-21.02,36.17-23.72,36.17-23.72,0,0-10.73-7.08-27.83-10.9ZM410.7,330.22c-10.03,0-18.17-8.12-18.17-18.17,0-7.17,4.15-13.34,10.16-16.3,3.96-.59,7.57-1.15,10.94-1.63,8.65,1.4,15.27,8.87,15.27,17.92,0,10.05-8.14,18.17-18.19,18.17ZM378.55,324.94c-9.88-3.72-18.32-.04-18.32-.04,0,0,8.44-18.96,36.26-27.78-3.93,3.76-6.39,9.05-6.39,14.93,0,8.75,5.44,16.2,13.12,19.2-9.51-.49-17.23-3.51-24.67-6.3ZM434.11,322.46c-3.71,2.4-7.05,4.14-10.19,5.43,4.54-3.78,7.43-9.47,7.43-15.85,0-8.26-4.85-15.37-11.87-18.67,3.62-.4,7.03-.62,10.39-.57,23.32.4,35.39,6.88,35.39,6.88-2.41.16-9.4,4.69-17.01,10.49-3.52,2.67-9.98,9.62-14.14,12.28Z"/>
        <path class="cls-1" d="M419.42,312.03c0,4.79-3.9,8.69-8.69,8.69s-8.69-3.9-8.69-8.69,3.89-8.69,8.69-8.69,8.69,3.89,8.69,8.69"/>
        <path class="cls-1" d="M217.01,286.32c-17.11-4.32-35.77-3.74-49.77-.62-17.1,3.81-27.83,10.9-27.83,10.9,0,0,13.62,2.69,36.18,23.72,22.56,21.02,52.25,12.98,52.25,12.98,0,0,20.39-9.27,27.51-7.72,7.11,1.55,10.51,3.41,11.03-1.28,0,0-11.34-28.38-49.36-37.97ZM210.52,328.36c-10.06,0-18.2-8.13-18.2-18.16,0-9.06,6.62-16.53,15.28-17.93,3.37.48,6.98,1.04,10.93,1.62,6.01,2.96,10.16,9.13,10.16,16.3,0,10.04-8.14,18.16-18.17,18.16ZM172.97,308.32c-7.61-5.8-14.6-10.33-17.01-10.49,0,0,12.07-6.47,35.4-6.88,3.36-.05,6.77.17,10.39.57-7.02,3.3-11.87,10.41-11.87,18.67,0,6.37,2.89,12.07,7.43,15.85-3.14-1.29-6.49-3.04-10.2-5.43-4.16-2.66-10.62-9.6-14.14-12.29ZM242.66,323.09c-7.44,2.79-15.17,5.82-24.68,6.3,7.69-2.99,13.14-10.45,13.14-19.2,0-5.88-2.46-11.17-6.4-14.93,27.82,8.82,36.25,27.78,36.25,27.78,0,0-8.43-3.67-18.32.04Z"/>
        <path class="cls-1" d="M201.8,310.18c0,4.79,3.9,8.69,8.69,8.69s8.69-3.9,8.69-8.69-3.9-8.69-8.69-8.69-8.69,3.89-8.69,8.69"/>
        <g>
          <path class="cls-1" d="M441.26,228.97s29.24-23.35,10.23-78.98c-17.15-46.82-49.61-57.5-60.73-85.77-10.92-27.74-20.12-59.69-78.34-57,7.92,4.51,16.91,8.46,22.25,8.46,9.12,0,15.34,1.66,19.8,6.59,4.49,4.96,4.58,13.78,5.71,19.4,1,4.97,2.85,9.13,2.85,9.13,0,0,3.42,7.99,6.58,15.76,6.09,15.01-2.6,20.85-2.6,20.85,5.83-8.17-2.12-26.97-5.94-32.24-3.82-5.26-4.79-8.13-7.42-19.62-2.63-11.49-11.09-13.68-11.09-13.68-2.53-.69-12.17-1.21-14.04-1.87C294.84,8.01,297.7.5,282.14.02c-8-.25-14.7,1.49-19.33,3.24-1.83,1-3.34,2.01-4.59,2.99-.02.03-.05.06-.07.09h-.05c-1.92,1.54-3.21,2.98-4.04,4.15-1.46,2.03-3.35,3.69-5.42,5.07-9.63,6.43-32.72,26.22-20.62,62.1,0,0,7.42,33.85,64.91,61.19,6.42,3.05,12.38,5.89,17.95,8.56-5.53,8.36-13.53,23.42-15.71,43.14-1.07,9.57-.18,18.62,1.73,26.88-5.38-3.62-11.01-7.89-16.89-12.89-59-50.16-93.25-43.43-105.31-42.51-12.05.93-68.32,16.7-61.69,67.55,7.14,54.73,67.57,45.75,85.68,47.28,16.03,1.36,52.4,2.59,95.17,27.04,18.54,8.34,38.07,5.37,54.71-1.85,3.81-1.65,61.2-36.63,103.39-21.33,42.18,15.3,51,47.29,36.63,77.89-14.38,30.6-79.36,46.29-132.44,23.31-63.49-27.49-91.41,4.69-98.83,17.67-7.42,12.98-2.7,24.86,4.4,24.86,0,0,4.64.31,6.49-5.87,1.86-6.19,4.02-19.18,29.05-24.43,25.03-5.25,48.21,7.43,60.27,11.45,12.06,4.01,40.81,14.23,78.21,9.28,37.39-4.96,95.8-34.01,103.22-104.48.62-73.25-87.52-81.9-97.7-81.44ZM444.44,218.26c-8.86,13.43-24.17,11.28-24.17,11.28-12.35-2.82-6.85-18.26.54-18.4,7.39-.14,24.18-6.58,27.93-12.48,1.24-1.96,4.56,6.17-4.3,19.6ZM449.54,190.87c-6.85,12.49-29.68,14.5-29.68,14.5-6.44-.13-12.07-14.33-1.19-19.98,15.45-1.35,28.85-11.44,30.32-12.77,1.48-1.35,7.39,5.77.54,18.26ZM439.69,146.14c2.49-3.56,8.51,2.55,10.13,9.64,1.61,7.08-1.48,14.05-12.49,19.42-11.01,5.37-18.4,3.88-18.4,3.88,0,0-9.26-.12-12.48-4.34-3.82-5-4.44-10.05,6.85-12.68,11.28-2.63,23.9-12.37,26.39-15.92ZM435.95,132.36c1.39,4.04,2.6,11.91-11.22,19.37-9.08,4.9-16.38,6.93-22.57,7.47-13.69,1.42-24.1-12.24-13.45-13.11,10.65-.89,27.39-12.6,32.73-19.48,5.33-6.9,13.11,1.7,14.5,5.75ZM418.08,122.79c-2.48,3.73-6.36,7.11-10.2,9.8-8.04,5.63-18.3,8.21-24.58,9.67-3.74.86-9.86,1-13.74-1.77-5.75-4.1-7.88-12.09-.59-13.38,0,0,20.89-2.38,39.18-20.97,2.4-2.44,17.59,5.1,9.94,16.65ZM350.44,190.56c-1.12-10.06-3.75-18.91-6.79-26.28,20.63,12.09,29.49,22.59,29.49,39.96,0,15.5-10.6,29.39-30.19,29.98,5.19-12.08,9.34-27.05,7.5-43.66ZM381.61,86.24c2.4-2.44,27.04,8.55,19.39,20.1-2.48,3.73-9.95,7.74-16.03,10.5-8.94,4.06-17.68,7.2-26.53,7.19-3.83,0-11.53-.67-15.41-3.44-5.75-4.1-7.88-12.09-.59-13.38,0,0,20.89-2.38,39.18-20.97ZM312.49,88.05c3.78-3.46,12.48-3.87,12.48-3.87,0,0,4.41,1.66,7.08,2.93,6,2.86,15.3,10.99,17.59,11.93-2.85.57-16.54,4.2-26.75,2.97-5.77-.7-9.98-4.53-11.59-7.43-1.71-2.77-.46-5.04,1.19-6.54ZM298.92,81.54c-10.18-2.81-8.76-11.88-8.76-11.88.91-4.13,15.71-2.32,15.71-2.32,5.24,10.98,11.48,12.69,11.48,12.69,0,0-8.26,4.33-18.42,1.5ZM325.6,55.49s5.83-.29,4.96,7.88c0,0-5.25-1.46-6.13-3.5-.88-2.04,1.17-4.38,1.17-4.38ZM314.77,57.15c3.32,12.02,15.75,14.37,15.75,14.37,9.95,2.49,12.02,9.67,18.24,15.89,6.22,6.22,15.48,2.9,15.48,2.9,0,0-6.77,4.15-13.4,1.66-6.63-2.49-11.61-11.61-18.24-14.09s-17.19-7-18.66-12.85c-4.15-16.58-16.58-33.16-16.58-33.16,4.56,2.9,14.09,13.27,17.41,25.29ZM301.64,54.86c1,3.72,1.81,5.64,1.81,5.64,0,0-14.1,2.72-17.62-3.73-3.53-6.44-.91-9.16-.1-10.07,3.62-3.02,9.86-1.41,11.07-1.21,0,0,3.82,5.64,4.83,9.37ZM293.28,39.55s-16.18-1.04-14.53-12.86c0,0,10.9,6.21,14.53,12.86ZM290.78,133.43c-59.66-31.23-66.77-73.56-51.62-99.21,7.03-11.9,15.41-18.11,23.37-18.11,13.29,0,19.9,5.8,19.9,5.8,0,0-8.1-2.23-15.75-2.44-11.21-.31-26.4,9.34-29.03,32.7-4.15,36.9,21.4,58.09,40.21,70.06,13.68,8.71,31.67,19.31,50.58,28.19l-11.61-4.56c-8.25-3.89-15.79-7.06-26.06-12.43ZM307.04,181.82c3.02-12.32,7.94-20.4,11.22-24.76,2.01-2.67,4.56-5.66,4.56-5.66,0,0,2.38,2.86,4.23,5.29,3.29,4.27,8.39,12.49,11.51,25.14.78,3.15,1.45,6.33,1.95,9.57-3.71-5.88-10.24-9.79-17.71-9.79s-14.01,3.91-17.72,9.79c.5-3.24,1.18-6.41,1.96-9.56ZM322.8,184.13c10.2,0,18.48,8.27,18.48,18.46s-8.28,18.49-18.48,18.49-18.5-8.28-18.5-18.49,8.27-18.46,18.5-18.46ZM340.8,213.23c-1.36,10.13-4.93,21.68-12.01,35.81-1.46,2.91-5.96,10.83-5.96,10.83,0,0-4.59-7.99-6.07-10.93-7.04-14.07-10.6-25.6-11.96-35.7,3.66,6.14,10.34,10.26,18.01,10.26s14.34-4.13,17.99-10.27ZM510.83,355.54c-10.82,25.03-38.01,45.44-76.03,51.93-38.02,6.48-85.62-16.08-85.62-16.08,0,0-34.31-17.92-63.38-4.04-29.08,13.88-25.21,29.93-25.21,29.93l-.57.9c-6.5-15.76,18.69-39.46,46.2-41.31,27.51-1.86,33.08,9.88,76.76,19.16,43.68,9.28,75.39,1.05,103.41-24.57,22.91-20.94,13.95-56.42,12.8-64.33-1.14-7.91,4.54-2.29,6.19-8.69,1.65-6.41-29.77-44.6-79.54-45.21-49.76-.63-66.75,14.83-75.1,22.88-8.34,8.04-5.26,18.54-5.26,18.54,0,0-16.38,6.49-28.75,6.49s-23.79-6.19-23.79-6.19c12.37-11.75,4.95-27.5-8.04-30.91-12.98-3.41-35.12-5.07-80.34-7.52-13.9-.76-47.13-4.64-62.25-23.61-7.77-9.45-14.37-27.08-6.2-39.49,25.43-38.62,80.79-21.18,91.91-16.54,11.13,4.64,20.73,8.85,51.35,33.64,13.59,11,20.42,19.91,23.23,24.12.32.75.65,1.49.98,2.22-22.02-14.44-74.52-31.55-95.34-31.55s-35.24,8.03-35.24,8.03c29.67-1.25,68.93,7.41,106.02,26.27,12.43,6.32,23.28,10.32,32.65,12.63,1.36,2.31,2.6,4.33,3.59,6.01,1.71,16.67-3.81,16.52-7.41,16.79-4.57.35-8.09-8.45-.35-9.31,0,0-4.1-2.04-6.98,1.99-2.87,4.01.97,11.61,8.57,11.47,7.32-.14,13.62-6.85,13.62-18.9h.15c0,12.05,5.77,19.28,14.14,19.18,7.62-.1,10.59-7.74,7.74-11.75-2.87-4.03-6.66-1.99-6.66-1.99,7.76.86,4.74,9.17.03,9.17-4.15,0-9.5.01-7.78-16.65.55-1.02,1.18-2.15,1.88-3.38,7.94-.09,14.07-1.67,18.51-3.83,11.6-5.63,105.31-36.6,151.37,2.65,46.06,39.25,30.96,77.82,30.96,77.82,0,0-11.4-1.03-22.23,24Z"/>
          <path class="cls-1" d="M322.78,210.95c4.8,0,8.69-3.9,8.69-8.69s-3.89-8.69-8.69-8.69-8.69,3.9-8.69,8.69,3.89,8.69,8.69,8.69Z"/>
        </g>
      </g>
      <g>
        <path class="cls-1" d="M21.99,517.48c0-4.03-1.04-4.76-3.91-6.35v-.49h13.32v.49c-2.87,1.59-3.85,2.32-3.85,6.35v23.03c0,8.55-5.99,13.5-14.05,13.5s-13.5-4.7-13.5-10.75c0-3.67,2.57-6.05,5.74-6.05,1.28,0,2.32.37,2.99.98-1.77,1.16-3.05,2.81-3.05,5.92,0,4.4,3.18,7.51,7.82,7.51,6.05,0,8.49-4.52,8.49-11.42v-22.72Z"/>
        <path class="cls-1" d="M45.9,511.12v-.49h13.32v.49c-2.87,1.59-3.91,2.32-3.91,6.35v29.07c0,4.03,1.04,4.76,3.91,6.35v.49h-13.32v-.49c2.87-1.59,3.85-2.32,3.85-6.35v-29.07c0-4.03-.98-4.76-3.85-6.35Z"/>
        <path class="cls-1" d="M104.66,516.99c.55-1.22.67-1.53.67-2.32,0-1.28-1.22-2.08-3.91-3.54v-.49h11.48v.49c-2.69,1.89-3.54,2.81-5.25,6.47l-16.61,36.4h-.31l-16.61-36.4c-1.65-3.67-2.5-4.58-5.19-6.47v-.49h13.32v.49c-2.5,1.1-3.3,1.83-3.3,3.12,0,.79.3,1.4.79,2.63l12.52,28.1,12.4-27.97Z"/>
        <path class="cls-1" d="M123.12,553.39h-11.48v-.49c2.69-1.89,3.73-2.81,5.44-6.48l17.1-36.52h.3l17.1,36.52c1.77,3.67,2.5,4.58,5.19,6.48v.49h-13.32v-.49c2.57-1.1,3.36-1.83,3.36-3.12,0-.79-.24-1.41-.85-2.63l-3.67-7.88h-18.81l-3.54,7.82c-.55,1.16-.73,1.83-.73,2.57,0,1.28,1.22,1.95,3.91,3.24v.49ZM124.64,536.78h16.49l-8.31-17.9-8.19,17.9Z"/>
        <path class="cls-1" d="M204.77,510.63h10.57v.49c-2.87,1.59-3.85,2.32-3.85,6.35v29.07c0,4.03.98,4.76,3.85,6.35v.49h-13.25v-.49c2.87-1.59,3.85-2.32,3.85-6.35v-32.01l-16.92,39.52h-.25l-17.1-39.52v31.95c0,4.03,1.65,4.82,4.58,6.41v.49h-12.09v-.49c2.87-1.59,4.52-2.38,4.52-6.41v-29.01c0-4.03-.98-4.76-3.85-6.35v-.49h11.42l14.48,33.41,14.05-33.41Z"/>
        <path class="cls-1" d="M258.79,511.12v-.49h12.15v.49c-2.87,1.59-4.46,2.38-4.46,6.41v19.48c0,11.18-7.09,16.98-16.8,16.98-12.09,0-17.71-6.66-17.71-16.98v-19.55c0-4.03-1.04-4.76-3.91-6.35v-.49h13.38v.49c-2.87,1.59-3.91,2.32-3.91,6.35v18.81c0,9.65,4.7,14.48,12.52,14.48s13.38-4.28,13.38-14.42v-18.81c0-4.03-1.71-4.83-4.64-6.41Z"/>
        <path class="cls-1" d="M283.12,553.39v-.49c2.87-1.59,3.85-2.32,3.85-6.35v-29.07c0-4.03-.98-4.76-3.85-6.35v-.49h13.32v.49c-2.87,1.59-3.91,2.32-3.91,6.35v15.82l18.63-17.35c.86-.85,1.22-1.53,1.22-2.26,0-.98-1.1-1.65-2.63-2.57v-.49h12.64v.49c-4.03,1.89-6.47,3.66-9.35,6.35l-11.73,10.87,15.39,18.2c2.63,3.05,5.01,5.19,7.64,6.35v.49h-13.56v-.49c1.04-.61,1.89-1.1,1.89-2.02,0-.85-.43-1.4-1.47-2.75l-13.86-16.25-4.83,4.34v10.32c0,4.03,1.04,4.76,3.91,6.35v.49h-13.32Z"/>
        <path class="cls-1" d="M365.01,510.63c1.83,0,2.75-.18,3.67-.37l2.02,11.48h-.55c-3.54-5.31-5.56-8.86-11.24-8.86h-6.05v33.59c0,4.03,1.1,4.82,4.46,6.41v.49h-14.42v-.49c3.36-1.59,4.4-2.38,4.4-6.41v-33.59h-5.98c-5.74,0-7.76,3.54-11.3,8.86h-.55l2.02-11.48c.92.18,1.83.37,3.67.37h29.87Z"/>
        <path class="cls-1" d="M383.17,511.12v-.49h13.32v.49c-2.87,1.59-3.91,2.32-3.91,6.35v29.07c0,4.03,1.04,4.76,3.91,6.35v.49h-13.32v-.49c2.87-1.59,3.85-2.32,3.85-6.35v-29.07c0-4.03-.98-4.76-3.85-6.35Z"/>
        <path class="cls-1" d="M462.75,516.68c.67-.98.85-1.89.85-2.38,0-1.16-1.16-1.95-3.12-3.18v-.49h10.75v.49c-2.44,1.83-3.67,3.18-5.68,6.35l-11.48,18.08v10.99c0,4.03,1.04,4.76,4.4,6.35v.49h-14.29v-.49c3.36-1.59,4.4-2.32,4.4-6.35v-10.99l-11.48-18.08c-2.02-3.18-3.18-4.52-5.68-6.35v-.49h12.46v.49c-1.59.98-2.02,1.71-2.02,2.81,0,.92.24,1.77.92,2.75l10.02,15.88,9.96-15.88Z"/>
        <path class="cls-1" d="M502.15,510.02c12.22,0,21.2,9.16,21.2,21.99s-8.98,21.99-21.2,21.99-21.19-9.16-21.19-21.99,8.98-21.99,21.19-21.99ZM502.15,512.77c-9.28,0-14.9,7.7-14.9,19.24s5.62,19.24,14.9,19.24,14.9-7.7,14.9-19.24-5.62-19.24-14.9-19.24Z"/>
        <path class="cls-1" d="M568.98,539.83c0-4.03-1.04-4.7-3.91-6.35v-.49h13.38v.49c-2.93,1.65-3.97,2.32-3.97,6.35v14.11h-1.41l-3.24-6.11c-2.38,3.6-7.27,6.17-13.25,6.17-12.34,0-21.38-8.86-21.38-21.74s9.41-22.23,22.29-22.23c4.95,0,8.8,1.53,11.3,3.36l3.3-3.36h.43v12.77h-.49c-3.48-5.74-7.51-10.14-14.23-10.14-9.65,0-16.25,7.88-16.25,19.42s6.66,18.69,16.49,18.69c4.46,0,8.25-1.53,10.93-5.19v-5.74Z"/>
        <path class="cls-1" d="M598,553.39h-11.48v-.49c2.69-1.89,3.73-2.81,5.43-6.48l17.1-36.52h.3l17.1,36.52c1.77,3.67,2.5,4.58,5.19,6.48v.49h-13.32v-.49c2.57-1.1,3.36-1.83,3.36-3.12,0-.79-.25-1.41-.86-2.63l-3.67-7.88h-18.81l-3.54,7.82c-.55,1.16-.73,1.83-.73,2.57,0,1.28,1.22,1.95,3.91,3.24v.49ZM599.53,536.78h16.49l-8.31-17.9-8.19,17.9Z"/>
        <path class="cls-1" d="M651.43,517.65c0,4.75-3.86,8.63-8.66,8.63s-8.66-3.88-8.66-8.63,3.9-8.64,8.66-8.64,8.66,3.84,8.66,8.64ZM650.71,517.65c0-4.28-3.64-7.95-7.93-7.95s-7.91,3.68-7.91,7.95,3.64,7.95,7.91,7.95,7.93-3.7,7.93-7.95ZM638.87,512.71l3.06-.12c2.09-.08,3.76.41,3.76,2.31s-1.16,2.44-2.62,2.58c.99.08,2.15.95,2.31,2.58.21,2.11.85,2.09,2.11,2.09l-.12.39c-2.56.66-3.43-.39-3.72-1.53-.25-1.03.29-3.08-1.61-3.45-.27-.06-.56,0-.56,0v4.19c0,.21,0,.29.08.29l.77.1v.39h-3.45v-.39l.72-.1c.12,0,.12-.08.12-.29v-8.26c0-.23,0-.29-.12-.29l-.72-.12v-.37ZM641.47,517.09h.29c1.78,0,2.17-1.05,2.17-2.11,0-2-1.63-2.23-2.46-1.98v4.09Z"/>
      </g>
    </g>
  </g>
</svg>