<?xml version="1.0" encoding="UTF-8"?>
<svg id="Layer_2" data-name="Layer 2" xmlns="http://www.w3.org/2000/svg" viewBox="0 0 1440.09 99.58">
  <defs>
    <style>
      .cls-1 {
        fill: #f2e7d1;
      }
    </style>
  </defs>
  <g id="Capa_1" data-name="Capa 1">
    <g>
      <path class="cls-1" d="M48.61,18.7c0-8.91-2.29-10.53-8.64-14.04v-1.08h29.44v1.08c-6.35,3.51-8.51,5.13-8.51,14.04v50.91c0,18.9-13.23,29.84-31.06,29.84S0,89.05,0,75.68c0-8.1,5.67-13.37,12.69-13.37,2.84,0,5.13.81,6.62,2.16-3.92,2.57-6.75,6.21-6.75,13.1,0,9.72,7.02,16.61,17.28,16.61,13.37,0,18.77-9.99,18.77-25.25V18.7Z"/>
      <path class="cls-1" d="M101.47,4.66v-1.08h29.44v1.08c-6.35,3.51-8.64,5.13-8.64,14.04v64.27c0,8.91,2.29,10.53,8.64,14.04v1.08h-29.44v-1.08c6.35-3.51,8.51-5.13,8.51-14.04V18.7c0-8.91-2.16-10.53-8.51-14.04Z"/>
      <path class="cls-1" d="M231.37,17.62c1.22-2.7,1.49-3.38,1.49-5.13,0-2.84-2.7-4.59-8.64-7.83v-1.08h25.38v1.08c-5.94,4.18-7.83,6.21-11.61,14.31l-36.73,80.48h-.68l-36.73-80.48c-3.64-8.1-5.54-10.13-11.48-14.31v-1.08h29.44v1.08c-5.54,2.43-7.29,4.05-7.29,6.89,0,1.76.67,3.1,1.76,5.8l27.68,62.11,27.41-61.84Z"/>
      <path class="cls-1" d="M272.17,98.1h-25.39v-1.08c5.94-4.19,8.24-6.21,12.02-14.32L296.61,1.96h.67l37.81,80.74c3.92,8.1,5.53,10.13,11.48,14.32v1.08h-29.44v-1.08c5.67-2.43,7.43-4.05,7.43-6.89,0-1.76-.54-3.11-1.89-5.81l-8.1-17.42h-41.59l-7.83,17.28c-1.22,2.57-1.62,4.05-1.62,5.67,0,2.84,2.7,4.32,8.64,7.16v1.08ZM275.54,61.37h36.46l-18.36-39.57-18.09,39.57Z"/>
      <path class="cls-1" d="M452.69,3.58h23.36v1.08c-6.34,3.51-8.5,5.13-8.5,14.04v64.27c0,8.91,2.16,10.53,8.5,14.04v1.08h-29.3v-1.08c6.34-3.51,8.5-5.13,8.5-14.04V12.22l-37.4,87.36h-.54l-37.81-87.36v70.62c0,8.91,3.64,10.66,10.13,14.18v1.08h-26.74v-1.08c6.35-3.51,10-5.27,10-14.18V18.7c0-8.91-2.16-10.53-8.51-14.04v-1.08h25.25l32,73.86L452.69,3.58Z"/>
      <path class="cls-1" d="M572.09,4.66v-1.08h26.87v1.08c-6.34,3.51-9.85,5.27-9.85,14.18v43.07c0,24.71-15.67,37.54-37.13,37.54-26.74,0-39.16-14.72-39.16-37.54V18.7c0-8.91-2.29-10.53-8.64-14.04v-1.08h29.57v1.08c-6.34,3.51-8.64,5.13-8.64,14.04v41.59c0,21.34,10.4,32.01,27.68,32.01s29.57-9.45,29.57-31.87V18.84c0-8.91-3.78-10.67-10.26-14.18Z"/>
      <path class="cls-1" d="M625.88,98.1v-1.08c6.35-3.51,8.51-5.13,8.51-14.04V18.7c0-8.91-2.16-10.53-8.51-14.04v-1.08h29.44v1.08c-6.35,3.51-8.64,5.13-8.64,14.04v34.97l41.18-38.35c1.89-1.89,2.7-3.37,2.7-4.99,0-2.16-2.43-3.65-5.8-5.67v-1.08h27.95v1.08c-8.91,4.18-14.31,8.1-20.66,14.04l-25.93,24.04,34.03,40.24c5.8,6.75,11.07,11.48,16.88,14.04v1.08h-29.98v-1.08c2.3-1.35,4.19-2.43,4.19-4.46,0-1.89-.94-3.1-3.24-6.08l-30.65-35.92-10.67,9.59v22.82c0,8.91,2.29,10.53,8.64,14.04v1.08h-29.44Z"/>
      <path class="cls-1" d="M806.91,3.58c4.05,0,6.08-.41,8.1-.81l4.45,25.39h-1.22c-7.83-11.75-12.29-19.58-24.84-19.58h-13.37v74.27c0,8.91,2.43,10.66,9.86,14.18v1.08h-31.87v-1.08c7.43-3.51,9.72-5.27,9.72-14.18V8.57h-13.23c-12.7,0-17.15,7.83-24.98,19.58h-1.22l4.45-25.39c2.03.41,4.05.81,8.1.81h66.03Z"/>
      <path class="cls-1" d="M847.05,4.66v-1.08h29.44v1.08c-6.35,3.51-8.64,5.13-8.64,14.04v64.27c0,8.91,2.29,10.53,8.64,14.04v1.08h-29.44v-1.08c6.34-3.51,8.5-5.13,8.5-14.04V18.7c0-8.91-2.16-10.53-8.5-14.04Z"/>
      <path class="cls-1" d="M1022.98,16.95c1.49-2.16,1.89-4.19,1.89-5.27,0-2.57-2.57-4.32-6.89-7.02v-1.08h23.77v1.08c-5.4,4.05-8.1,7.02-12.56,14.04l-25.38,39.97v24.3c0,8.91,2.29,10.53,9.72,14.04v1.08h-31.6v-1.08c7.43-3.51,9.72-5.13,9.72-14.04v-24.3l-25.39-39.97c-4.46-7.02-7.02-9.99-12.56-14.04v-1.08h27.55v1.08c-3.51,2.16-4.46,3.78-4.46,6.21,0,2.03.54,3.92,2.03,6.08l22.14,35.11,22.01-35.11Z"/>
      <path class="cls-1" d="M1110.08,2.23c27.01,0,46.86,20.25,46.86,48.61s-19.85,48.61-46.86,48.61-46.85-20.25-46.85-48.61,19.85-48.61,46.85-48.61ZM1110.08,8.3c-20.52,0-32.95,17.02-32.95,42.54s12.42,42.53,32.95,42.53,32.95-17.01,32.95-42.53-12.42-42.54-32.95-42.54Z"/>
      <path class="cls-1" d="M1257.82,68.12c0-8.91-2.29-10.4-8.64-14.04v-1.08h29.57v1.08c-6.48,3.65-8.78,5.13-8.78,14.04v31.19h-3.11l-7.15-13.5c-5.27,7.97-16.07,13.64-29.3,13.64-27.28,0-47.26-19.58-47.26-48.07s20.79-49.15,49.29-49.15c10.94,0,19.44,3.38,24.98,7.43l7.29-7.43h.95v28.22h-1.08c-7.7-12.69-16.61-22.41-31.46-22.41-21.33,0-35.92,17.42-35.92,42.94s14.72,41.32,36.46,41.32c9.85,0,18.23-3.38,24.17-11.48v-12.69Z"/>
      <path class="cls-1" d="M1321.97,98.1h-25.38v-1.08c5.94-4.19,8.24-6.21,12.01-14.32L1346.41,1.96h.67l37.81,80.74c3.92,8.1,5.54,10.13,11.48,14.32v1.08h-29.44v-1.08c5.67-2.43,7.43-4.05,7.43-6.89,0-1.76-.54-3.11-1.89-5.81l-8.1-17.42h-41.59l-7.83,17.28c-1.22,2.57-1.62,4.05-1.62,5.67,0,2.84,2.7,4.32,8.64,7.16v1.08ZM1325.34,61.37h36.46l-18.36-39.57-18.09,39.57Z"/>
      <path class="cls-1" d="M1440.09,19.09c0,10.5-8.54,19.09-19.14,19.09s-19.14-8.59-19.14-19.09,8.63-19.09,19.14-19.09,19.14,8.49,19.14,19.09ZM1438.49,19.09c0-9.46-8.04-17.58-17.54-17.58s-17.49,8.13-17.49,17.58,8.04,17.58,17.49,17.58,17.54-8.17,17.54-17.58ZM1412.32,8.17l6.76-.27c4.61-.18,8.31.91,8.31,5.11s-2.55,5.39-5.8,5.71c2.19.19,4.75,2.1,5.11,5.71.46,4.66,1.87,4.61,4.66,4.61l-.28.87c-5.66,1.46-7.58-.87-8.22-3.38-.55-2.28.64-6.8-3.56-7.62-.59-.14-1.23,0-1.23,0v9.27c0,.45,0,.64.18.64l1.69.23v.87h-7.63v-.87l1.6-.23c.28,0,.28-.19.28-.64V9.91c0-.5,0-.64-.28-.64l-1.6-.28v-.82ZM1418.08,17.86h.64c3.93,0,4.79-2.33,4.79-4.66,0-4.43-3.61-4.93-5.43-4.38v9.04Z"/>
    </g>
  </g>
</svg>